{"title":"Chef Academy S01E08 PROPER PDTV-XVID Dodecahedron [Dodecahedron]","uid":5276297,"size":372555776,"categoryP":"video","categoryS":"tv_shows","magnet":"?xt=urn:btih:2533cce213634a09b9317230e1f986d31bd94e26&amp;dn=Chef+Academy+S01E08+PROPER+PDTV-XVID+Dodecahedron+%5BDodecahedron%5D&amp;tr=udp%3A%2F%2Ftracker.openbittorrent.com%3A80&amp;tr=udp%3A%2F%2Fopen.demonii.com%3A1337&amp;tr=udp%3A%2F%2Ftracker.coppersurfer.tk%3A6969&amp;tr=udp%3A%2F%2Fexodus.desync.com%3A6969","seeders":0,"leechers":2,"uploader":"Dodecahedron9","files":-1,"time":1263390348,"description":"Chef Academy S01E08 PROPER PDTV-XVID Dodecahedron [Dodecahedron]\n\nEpisode 8: Too many Cooks (PROPER)\n\nThe students will collectively prepare a gala dinner for local esteemed\nchefs and other VIPs. Chef Novelli chooses one of his students to be the\nhead chef for the gala dinner.\n\n--\n\nPROPER Reason: Source by Momentum had 7 extra minutes (duplicate scenes  \nafter commercial break, minute 25 to minute 32 removed). \n\n2-pass compression + Direct Stream Copy method.\n\n\n   General\n\n      Format : AVI\n      Format/Info : Audio Video Interleave\n      File size : 355 MiB\n      Duration : 44mn 32s\n      Overall bit rate : 1 115 Kbps\n      Writing application : VirtualDubMod 1.5.4.1 (build 2178/release)\n      Writing library : VirtualDubMod build 2178/release\n\n   Video\n\n      Format : MPEG-4 Visual\n      Format profile : Streaming Video@L1\n      Format settings, BVOP : Yes\n      Format settings, QPel : No\n      Format settings, GMC : No warppoints\n      Format settings, Matrix : Custom\n      Codec ID : XVID\n      Codec ID/Hint : XviD\n      Duration : 44mn 32s\n      Bit rate : 979 Kbps\n      Width : 512 pixels\n      Height : 384 pixels\n      Display aspect ratio : 4/3\n      Frame rate : 29.970 fps\n      Resolution : 24 bits\n      Colorimetry : 4:2:0\n      Scan type : Progressive\n      Bits/(Pixel*Frame) : 0.166\n      Stream size : 312 MiB (88%)\n      Writing library : XviD 50\n\n   Audio\n\n      Format : MPEG Audio\n      Format version : Version 1\n      Format profile : Layer 3\n      Codec ID : 55\n      Codec ID/Hint : MP3\n      Duration : 44mn 32s\n      Bit rate mode : Variable\n      Bit rate : 122 Kbps\n      Minimum bit rate : 128 Kbps\n      Channel(s) : 2 channels\n      Sampling rate : 48.0 KHz\n      Resolution : 16 bits\n      Stream size : 38.8 MiB (11%)\n      Alignment : Aligned on interleaves\n      Interleave, duration : 24 ms (0.72 video frame)\n      Interleave, preload duration : 557 ms\n      Writing library : LAME3.98r\n      Encoding settings : ABR","torrent":{"xt":"urn:btih:2533cce213634a09b9317230e1f986d31bd94e26","amp;dn":"Chef+Academy+S01E08+PROPER+PDTV-XVID+Dodecahedron+%5BDodecahedron%5D","amp;tr":["udp%3A%2F%2Ftracker.openbittorrent.com%3A80","udp%3A%2F%2Fopen.demonii.com%3A1337","udp%3A%2F%2Ftracker.coppersurfer.tk%3A6969","udp%3A%2F%2Fexodus.desync.com%3A6969"],"infoHash":"2533cce213634a09b9317230e1f986d31bd94e26","infoHashBuffer":{"type":"Buffer","data":[37,51,204,226,19,99,74,9,185,49,114,48,225,249,134,211,27,217,78,38]},"announce":[],"urlList":[]}}